<svg width="16" height="16" viewBox="0 0 16 16" fill="none" xmlns="http://www.w3.org/2000/svg">
  <path d="M8 12C5.81569 12 4 10.1843 4 8C4 5.81176 5.81176 4 7.99608 4C10.1843 4 12 5.81176 12 8C12 10.1843 10.1882 12 8 12ZM8 11.4667C9.67059 11.4667 11.0902 10.2431 11.4039 8.6549C10.8941 8.31373 10.851 7.32549 10.6667 7.32549C10.5804 7.32549 10.5686 7.46275 10.4118 7.46275C10.1725 7.46275 9.74902 6.91765 9.57647 6.91765C9.47451 6.91765 9.38039 7.02745 9.38039 7.15294C9.38039 7.34902 10.1843 7.62353 10.1843 7.96863C10.1843 8.3098 9.76863 8.60784 9.76863 8.74902C9.76863 8.94902 9.86275 9.27059 9.66275 9.59216C9.50196 9.85882 8.88627 10.9765 8.16471 10.9765C7.34118 10.9765 7.40392 9.97647 7.40392 9.39608C7.40392 9.02353 7.10588 8.74902 6.70196 8.74902C6.03529 8.74902 5.6549 8.37255 5.6549 7.72549C5.6549 6.98039 6.38824 6.35686 7.26667 6.35686C7.65882 6.35686 8.09804 6.56471 8.27451 6.56471C8.37647 6.56471 8.43922 6.43922 8.43922 6.27451C8.43922 6.10196 8.16078 5.81961 7.9098 5.81961C7.86275 5.81961 7.83922 5.84314 7.83137 5.89412C7.82353 6.01176 7.76078 6.09412 7.63137 6.09412C7.3451 6.09412 7.18431 5.83529 7.01176 5.83137C6.78039 5.83137 6.78431 6.32549 6.32941 6.32549C6.11765 6.32549 5.98039 6.19608 5.98039 6C5.98039 5.6902 6.4 5.57255 6.4 5.05882C6.4 5.01176 6.40784 4.96863 6.41961 4.92157C5.30588 5.50196 4.53333 6.67059 4.53333 8C4.53333 9.89412 6.10588 11.4667 8 11.4667ZM9.15294 5.63529C9.23529 5.63529 9.3098 5.71765 9.45098 5.71765C9.53726 5.71765 9.60392 5.63529 9.60392 5.53333C9.60392 5.34902 9.39608 5.20784 9.12157 5.20784C8.8 5.20784 8.61176 5.31373 8.61176 5.50196C8.61176 5.62353 8.70196 5.7098 8.82353 5.7098C8.94902 5.7098 9.00784 5.63529 9.15294 5.63529Z" fill="#0C83FA"/>
  <path d="M1.59766 7.41406C1.19336 7.47852 1 7.70703 1 8.04102C1 8.38086 1.19336 8.62109 1.59766 8.68555C2.32422 8.79688 2.61133 9.16602 2.61133 10.1094V11.7559C2.61133 13.3496 3.33789 14.0996 4.91992 14.0996C5.01367 14.0996 5.11328 14.082 5.18359 14.0586C5.36523 13.9824 5.46484 13.8359 5.46484 13.6426C5.46484 13.4141 5.36523 13.2969 5.16016 13.2441C5.10156 13.2324 5.04297 13.2207 4.97266 13.2148C3.98828 13.1445 3.63086 12.7227 3.63086 11.6387V9.69336C3.63086 8.70312 3.10938 8.15234 2.19531 8.06445C2.17773 8.06445 2.17773 8.04102 2.19531 8.04102C3.10938 7.95312 3.63086 7.40234 3.63086 6.41211V4.46094C3.63086 3.37109 3.98828 2.96094 4.97266 2.89062C5.06641 2.88477 5.14844 2.87305 5.20703 2.84961C5.37695 2.79102 5.46484 2.66211 5.46484 2.45703C5.46484 2.25195 5.35938 2.11133 5.16016 2.04102C5.07227 2.01172 4.97852 2 4.86133 2C3.33203 2 2.61133 2.76172 2.61133 4.34375V5.99609C2.61133 6.92773 2.32422 7.30273 1.59766 7.41406Z" fill="#0C83FA"/>
  <path d="M14.3672 8.68555C14.7715 8.62109 14.9707 8.38086 14.9707 8.04102C14.9707 7.70703 14.7715 7.47852 14.3672 7.41406C13.6465 7.30273 13.3535 6.92773 13.3535 5.99609V4.34375C13.3535 2.76172 12.6328 2 11.1035 2C10.9863 2 10.8984 2.01172 10.8105 2.04102C10.5996 2.11133 10.5 2.25195 10.5 2.45703C10.5 2.66211 10.5996 2.78516 10.7637 2.84961C10.8223 2.87305 10.8984 2.88477 10.9922 2.89062C11.9707 2.9375 12.3398 3.37109 12.3398 4.46094V6.41211C12.3398 7.4082 12.8613 8.04102 13.7695 8.04102C13.7871 8.04102 13.7871 8.06445 13.7695 8.06445C12.8613 8.06445 12.3398 8.69727 12.3398 9.69336V11.6387C12.3398 12.7227 11.9766 13.1445 10.9922 13.2148C10.9297 13.22 10.8812 13.2299 10.83 13.2402C10.8236 13.2415 10.8171 13.2428 10.8105 13.2441C10.6055 13.2852 10.5 13.4141 10.5 13.6426C10.5 13.8477 10.6113 14 10.7871 14.0586C10.8574 14.082 10.9512 14.0996 11.0449 14.0996C12.627 14.0996 13.3535 13.3496 13.3535 11.7559V10.1094C13.3535 9.16602 13.6465 8.79688 14.3672 8.68555Z" fill="#0C83FA"/>
</svg>
